<svg xmlns="http://www.w3.org/2000/svg" width="19" height="22" viewBox="0 0 19 22" fill="none">
  <path d="M17.6533 6V16C17.6533 20 16.6533 21 12.6533 21H6.65332C2.65332 21 1.65332 20 1.65332 16V6C1.65332 2 2.65332 1 6.65332 1H12.6533C16.6533 1 17.6533 2 17.6533 6Z" stroke="#FFCC26" stroke-width="1.5" stroke-linecap="round" stroke-linejoin="round"/>
  <path d="M11.6533 4.5H7.65332" stroke="#FFCC26" stroke-width="1.5" stroke-linecap="round" stroke-linejoin="round"/>
  <path d="M9.65327 18.1C10.5093 18.1 11.2033 17.406 11.2033 16.55C11.2033 15.694 10.5093 15 9.65327 15C8.79723 15 8.10327 15.694 8.10327 16.55C8.10327 17.406 8.79723 18.1 9.65327 18.1Z" stroke="#FFCC26" stroke-width="1.5" stroke-linecap="round" stroke-linejoin="round"/>
</svg>
