<svg xmlns="http://www.w3.org/2000/svg" width="25" height="24" viewBox="0 0 25 24" fill="none">
  <path d="M18.4047 7.04997C18.1647 7.00997 17.9147 6.99998 17.6547 6.99998H7.65473C7.37473 6.99998 7.10473 7.01998 6.84473 7.05998C6.98473 6.77998 7.18473 6.52001 7.42473 6.28001L10.6747 3.02C12.0447 1.66 14.2647 1.66 15.6347 3.02L17.3847 4.78996C18.0247 5.41996 18.3647 6.21997 18.4047 7.04997Z" stroke="#FFCC26" stroke-width="1.5" stroke-linecap="round" stroke-linejoin="round"/>
  <path d="M9.65332 19C9.65332 19.75 9.44332 20.46 9.07332 21.06C8.38332 22.22 7.11332 23 5.65332 23C4.19332 23 2.92332 22.22 2.23332 21.06C1.86332 20.46 1.65332 19.75 1.65332 19C1.65332 16.79 3.44332 15 5.65332 15C7.86332 15 9.65332 16.79 9.65332 19Z" stroke="#FFCC26" stroke-width="1.5" stroke-miterlimit="10" stroke-linecap="round" stroke-linejoin="round"/>
  <path d="M7.14504 18.9795H4.16504" stroke="#FFCC26" stroke-width="1.5" stroke-miterlimit="10" stroke-linecap="round" stroke-linejoin="round"/>
  <path d="M5.65332 17.5195V20.5095" stroke="#FFCC26" stroke-width="1.5" stroke-miterlimit="10" stroke-linecap="round" stroke-linejoin="round"/>
  <path d="M22.6533 12V17C22.6533 20 20.6533 22 17.6533 22H8.28332C8.59332 21.74 8.86332 21.42 9.07332 21.06C9.44332 20.46 9.65332 19.75 9.65332 19C9.65332 16.79 7.86332 15 5.65332 15C4.45332 15 3.38332 15.53 2.65332 16.36V12C2.65332 9.28 4.29332 7.38 6.84332 7.06C7.10332 7.02 7.37332 7 7.65332 7H17.6533C17.9133 7 18.1633 7.00999 18.4033 7.04999C20.9833 7.34999 22.6533 9.26 22.6533 12Z" stroke="#FFCC26" stroke-width="1.5" stroke-linecap="round" stroke-linejoin="round"/>
  <path d="M22.6533 12.5H19.6533C18.5533 12.5 17.6533 13.4 17.6533 14.5C17.6533 15.6 18.5533 16.5 19.6533 16.5H22.6533" stroke="#FFCC26" stroke-width="1.5" stroke-linecap="round" stroke-linejoin="round"/>
</svg>
