<svg xmlns="http://www.w3.org/2000/svg" width="18" height="18" viewBox="0 0 18 18" fill="none">
  <path d="M7.89559 10.9509L11.4962 8.86955L7.89559 6.78825V10.9509ZM15.9155 5.51866C16.0057 5.84473 16.0682 6.2818 16.1098 6.83681C16.1584 7.39183 16.1792 7.87053 16.1792 8.28679L16.2208 8.86955C16.2208 10.3889 16.1098 11.5059 15.9155 12.2204C15.7421 12.8448 15.3397 13.2472 14.7153 13.4207C14.3893 13.5109 13.7926 13.5733 12.8768 13.6149C11.9749 13.6635 11.1494 13.6843 10.3862 13.6843L9.28313 13.7259C6.37625 13.7259 4.56551 13.6149 3.85093 13.4207C3.22654 13.2472 2.82416 12.8448 2.65072 12.2204C2.56053 11.8944 2.49809 11.4573 2.45646 10.9023C2.4079 10.3473 2.38708 9.86858 2.38708 9.45232L2.34546 8.86955C2.34546 7.3502 2.45646 6.23324 2.65072 5.51866C2.82416 4.89427 3.22654 4.49188 3.85093 4.31844C4.177 4.22825 4.77364 4.16581 5.68942 4.12419C6.59131 4.07562 7.4169 4.05481 8.18004 4.05481L9.28313 4.01318C12.19 4.01318 14.0007 4.12419 14.7153 4.31844C15.3397 4.49188 15.7421 4.89427 15.9155 5.51866Z" fill="white"/>
</svg>
