<svg xmlns="http://www.w3.org/2000/svg" width="25" height="24" viewBox="0 0 25 24" fill="none">
  <path d="M10.7634 11.15H8.11337C7.48337 11.15 6.97339 11.66 6.97339 12.29V17.41H10.7634V11.15V11.15Z" stroke="#FFCC26" stroke-width="1.5" stroke-miterlimit="10" stroke-linecap="round" stroke-linejoin="round"/>
  <path d="M13.4146 6.59998H11.8946C11.2646 6.59998 10.7546 7.10999 10.7546 7.73999V17.4H14.5446V7.73999C14.5446 7.10999 14.0446 6.59998 13.4146 6.59998Z" stroke="#FFCC26" stroke-width="1.5" stroke-miterlimit="10" stroke-linecap="round" stroke-linejoin="round"/>
  <path d="M17.2015 12.85H14.5515V17.4H18.3415V13.99C18.3315 13.36 17.8215 12.85 17.2015 12.85Z" stroke="#FFCC26" stroke-width="1.5" stroke-miterlimit="10" stroke-linecap="round" stroke-linejoin="round"/>
  <path d="M9.65332 22H15.6533C20.6533 22 22.6533 20 22.6533 15V9C22.6533 4 20.6533 2 15.6533 2H9.65332C4.65332 2 2.65332 4 2.65332 9V15C2.65332 20 4.65332 22 9.65332 22Z" stroke="#FFCC26" stroke-width="1.5" stroke-linecap="round" stroke-linejoin="round"/>
</svg>
