<svg xmlns="http://www.w3.org/2000/svg" width="25" height="24" viewBox="0 0 25 24" fill="none">
  <path d="M9.65332 22H15.6533C20.6533 22 22.6533 20 22.6533 15V9C22.6533 4 20.6533 2 15.6533 2H9.65332C4.65332 2 2.65332 4 2.65332 9V15C2.65332 20 4.65332 22 9.65332 22Z" stroke="#FFCC26" stroke-width="1.5" stroke-linecap="round" stroke-linejoin="round"/>
  <path d="M8.65332 19H16.6533C18.6533 19 19.6533 18 19.6533 16V8C19.6533 6 18.6533 5 16.6533 5H8.65332C6.65332 5 5.65332 6 5.65332 8V16C5.65332 18 6.65332 19 8.65332 19Z" stroke="#FFCC26" stroke-width="1.5" stroke-linecap="round" stroke-linejoin="round"/>
  <path d="M5.65332 9.5H8.13332C9.51332 9.5 10.6333 10.62 10.6333 12C10.6333 13.38 9.51332 14.5 8.13332 14.5H5.65332" stroke="#FFCC26" stroke-width="1.5" stroke-linecap="round" stroke-linejoin="round"/>
  <path d="M19.6533 9.98999H16.6533" stroke="#FFCC26" stroke-width="1.5" stroke-linecap="round" stroke-linejoin="round"/>
  <path d="M19.6533 14H16.6533" stroke="#FFCC26" stroke-width="1.5" stroke-linecap="round" stroke-linejoin="round"/>
  <path d="M7.85352 12H7.95352" stroke="#FFCC26" stroke-width="2" stroke-miterlimit="10" stroke-linecap="round" stroke-linejoin="round"/>
</svg>
